<svg width="40" height="40" viewBox="0 0 40 40" fill="none" xmlns="http://www.w3.org/2000/svg">
<rect width="40" height="40" rx="8" fill="#168DE2"/>
<path fill-rule="evenodd" clip-rule="evenodd" d="M19.0637 12.9843C20.9708 12.9843 22.7793 13.84 24.0946 15.1565C24.0946 14.5312 24.5221 14.0375 25.1139 14.0375H25.2783C26.199 14.0375 26.3963 14.9261 26.3963 15.1894V25.0632C26.3306 25.7215 27.054 26.0506 27.4814 25.6228C29.0597 23.9771 30.9669 17.23 26.495 13.3134C22.319 9.69304 16.7291 10.2855 13.7697 12.326C10.6131 14.5312 8.57442 19.3364 10.5473 23.8784C12.6846 28.8153 18.8006 30.2964 22.4505 28.8153C24.2919 28.0583 25.1468 30.5597 23.2397 31.3825C20.3461 32.6332 12.2901 32.5015 8.54154 25.9848C5.97676 21.5745 6.10829 13.84 12.849 9.82469C18.0115 6.76381 24.818 7.61954 28.8953 11.8982C33.17 16.3743 32.9398 24.767 28.7638 28.0254C26.8895 29.5065 24.0617 28.0583 24.0946 25.8861L24.0617 25.1949C22.7464 26.5114 21.0037 27.2684 19.0637 27.2684C15.2823 27.2684 11.9612 23.9442 11.9612 20.1593C11.9612 16.3414 15.2823 12.9843 19.0637 12.9843ZM23.8315 19.896C23.7 17.1313 21.6285 15.4527 19.1623 15.4527H19.0637C16.203 15.4527 14.6247 17.6908 14.6247 20.258C14.6247 23.1214 16.5318 24.9316 19.0637 24.9316C21.8586 24.9316 23.7329 22.8581 23.8644 20.4555L23.8315 19.896Z" fill="#FFA930"/>
</svg>
