<svg width="40" height="40" viewBox="0 0 40 40" fill="none" xmlns="http://www.w3.org/2000/svg">
<rect width="40" height="40" fill="black" fill-opacity="0"/>
<path d="M22.1558 22.045C21.5146 21.6717 20.6233 21.6717 19.8992 21.6717H17.5212V26.5717H19.7038C20.5117 26.5717 21.5421 26.6296 22.2388 26.1404C22.8783 25.71 23.2404 24.865 23.2404 24.0604C23.2404 23.3129 22.7954 22.4188 22.1558 22.045ZM21.2588 17.8604C21.7879 17.4575 22.0654 16.7392 22.0654 16.0775C22.0654 15.3587 21.7317 14.6687 21.1196 14.2954C20.4792 13.9221 19.3088 14.0083 18.5571 14.0083H17.5212V18.3208H18.8917C19.6712 18.3204 20.5908 18.3779 21.2588 17.8604ZM32.9688 0H7.03042C3.14792 0 0 3.14792 0 7.03125V32.9688C0 36.8512 3.14792 40 7.03042 40H32.9688C36.8512 40 40 36.8512 40 32.9688V7.03125C40 3.14792 36.8512 0 32.9688 0ZM21.085 30.2229H12.9133V10.5004H21.8417C24.4279 10.5004 26.8142 12.1467 26.8142 15.0504C26.8142 17.2925 25.5625 18.8279 23.9658 19.305V19.3629C26.3333 19.8521 28.0242 21.1379 28.0242 24.24C28.0242 27.1108 26.0692 30.2229 21.085 30.2229Z" fill="#4A76A8"/>
</svg>
