<svg width="40" height="40" viewBox="0 0 40 40" fill="none" xmlns="http://www.w3.org/2000/svg">
<rect width="40" height="40" rx="8" fill="white"/>
<path d="M26.5007 4H21.7631C16.9633 4 12.1201 7.40137 12.1201 15.0004C12.1201 18.9365 13.8584 22.0021 17.0449 23.7455L11.2127 33.8762C10.9361 34.3553 10.9289 34.8983 11.1932 35.3287C11.4513 35.749 11.9233 36 12.4553 36H15.4056C16.0758 36 16.5984 35.6891 16.849 35.1445L22.3174 24.88H22.7165V34.7207C22.7165 35.4142 23.3263 36 24.0481 36H26.6254C27.4349 36 28 35.4576 28 34.681V5.40019C28.0001 4.57581 27.3836 4 26.5007 4ZM22.7165 20.3204H22.0125C19.2827 20.3204 17.653 18.182 17.653 14.6002C17.653 10.1465 19.7117 8.55969 21.6384 8.55969H22.7165V20.3204Z" fill="#D7143A"/>
</svg>
