<svg width="46" height="36" viewBox="0 0 46 36" fill="none" xmlns="http://www.w3.org/2000/svg">
<rect width="45.6266" height="35.7031" fill="black" fill-opacity="0" transform="translate(0.186584)"/>
<path d="M3.91866 4.021C1.45491 6.17615 0.904592 9.05915 0.904592 9.05915C-0.653844 13.6159 0.773452 19.2822 1.01878 20.1241C1.30466 21.1932 2.00286 22.1131 2.77961 24.7426C3.25373 26.3288 3.58255 28.3391 3.91866 30.2431V4.021V4.021Z" fill="#E8BF43"/>
<path d="M8.13596 1.96069C6.32511 2.34 4.95276 3.11761 3.91888 4.0208V30.2427C4.14038 31.4968 4.36424 32.7035 4.63854 33.7087C5.22449 35.8686 6.73742 35.6907 8.13617 35.6529V1.96069H8.13596Z" fill="#E98025"/>
<path d="M10.4782 25.0909C10.4782 25.0909 11.3547 25.0599 12.353 25.0552V1.80903C10.7327 1.63347 9.33915 1.7095 8.13593 1.96087V35.6531C8.37653 35.646 8.61734 35.6437 8.84592 35.6601C10.4065 35.7502 10.3041 34.1025 9.8182 33.1282C9.33206 32.1586 9.2035 27.0421 9.2035 26.0678C9.20329 25.0909 10.4782 25.0909 10.4782 25.0909Z" fill="#E12228"/>
<path d="M16.5654 2.69559C15.1385 2.39445 14.2261 2.10762 14.2261 2.10762C13.5708 1.97008 12.9465 1.87291 12.353 1.80884V25.055C12.9845 25.0503 13.6636 25.0597 14.1971 25.0907C15.0767 25.1499 15.8438 25.1381 16.5654 25.0834V2.69559Z" fill="#DA6197"/>
<path d="M16.5654 25.0839C17.9884 24.9794 19.2317 24.7163 20.7876 24.5386V3.30982C19.1867 3.18894 17.7117 2.93756 16.5654 2.6958V25.0839Z" fill="#9E5394"/>
<path d="M20.7876 3.30971V24.5383C21.5667 24.4505 22.4272 24.3817 23.4278 24.3677C24.0734 24.3583 24.5881 24.4364 25.0002 24.5716V3.25269C23.5896 3.42354 22.1432 3.41393 20.7876 3.30971Z" fill="#ABB0D1"/>
<path d="M29.2151 2.22388C28.3263 2.56047 27.2663 2.87591 25.9222 3.11767C25.617 3.17213 25.3101 3.2172 25.0002 3.25286V24.5718C26.8374 25.1739 26.611 26.8929 26.611 26.8929C26.611 26.8929 26.8374 31.3597 26.8374 33.0002C26.8374 34.6549 27.7666 35.6959 28.8412 35.6959C28.9578 35.6959 29.084 35.6959 29.2151 35.6959V2.22388Z" fill="#0779B5"/>
<path d="M29.2151 35.6957C30.2968 35.6957 31.7312 35.6957 31.7312 35.6957C32.6629 35.7548 33.1634 35.4513 33.435 35.0791V0.327148C32.1341 0.753864 31.0356 1.53639 29.2153 2.22388V35.6957H29.2151Z" fill="#7BB2DC"/>
<path d="M37.6497 0.234715C36.8892 0.06877 36.1509 0 35.498 0C34.6998 0 34.0447 0.123444 33.4348 0.327192V35.0793C33.8018 34.5719 33.7348 33.9365 33.7348 33.9365C33.7348 33.9365 33.4348 26.8453 33.7348 23.4405C34.0207 20.0384 35.8839 20.24 36.8513 20.24C37.1899 20.24 37.4471 20.3561 37.6499 20.5836V0.234715H37.6497Z" fill="#009C97"/>
<path d="M37.6497 20.5839C38.0354 21.0226 38.2285 21.876 38.4144 23.1538C38.6314 24.5623 40.0606 28.1303 41.8646 30.0507V2.4989C40.6706 1.23755 39.1197 0.552414 37.6497 0.234619V20.5839Z" fill="#81A347"/>
<path d="M43.6967 25.8708C40.9614 21.9872 43.4943 16.3446 43.8943 9.05906C44.059 5.97936 43.1796 3.88828 41.8646 2.49878V30.0506C42.5625 30.7949 43.3202 31.2927 44.0826 31.319C46.8296 31.4018 45.5549 28.6871 45.2669 28.398C44.9666 28.1043 43.6967 25.8708 43.6967 25.8708Z" fill="#C1C830"/>
</svg>
