<svg width="80" height="74" viewBox="0 0 80 74" fill="none" xmlns="http://www.w3.org/2000/svg">
<rect width="80" height="73.7499" fill="black" fill-opacity="0"/>
<rect width="80" height="23.7783" fill="black" fill-opacity="0" transform="translate(0 49.9717)"/>
<path d="M0.101413 59.0906C0.101413 57.8135 0.0775355 56.7656 0 55.7434H1.97461L2.07897 57.7366H2.15329C2.84708 56.5614 4.00287 55.4634 6.05474 55.4634C7.74926 55.4634 9.03329 56.484 9.57228 57.9392H9.62272C10.0096 57.2518 10.4952 56.7152 11.0106 56.3316C11.7551 55.7699 12.5739 55.4634 13.7565 55.4634C15.3974 55.4634 17.8367 56.5347 17.8367 60.8275V68.1047H15.6297V61.1075C15.6297 58.7337 14.757 57.3022 12.9342 57.3022C11.6507 57.3022 10.6497 58.2476 10.2658 59.3469C10.1614 59.6523 10.0839 60.0613 10.0839 60.4687V68.1047H7.87696V60.6986C7.87696 58.734 7.00422 57.3022 5.28583 57.3022C3.87409 57.3022 2.84655 58.4254 2.48945 59.5487C2.35826 59.8803 2.30755 60.2645 2.30755 60.6481V68.1047H0.100608V59.0906H0.101413Z" fill="#333333"/>
<path d="M21.6105 55.7434L24.3298 63.0484C24.6129 63.8661 24.9195 64.8354 25.1251 65.5762H25.1787C25.4078 64.8357 25.6667 63.8914 25.9739 62.9984L28.4371 55.7434H30.823L27.4364 64.5572C25.8197 68.795 24.7173 70.9676 23.1743 72.2947C22.0727 73.2637 20.9674 73.6476 20.4048 73.7499L19.839 71.8606C20.4048 71.6815 21.1496 71.3227 21.8165 70.7628C22.4301 70.2767 23.2014 69.4083 23.7136 68.2587C23.8177 68.0304 23.8952 67.8494 23.8952 67.7218C23.8952 67.5945 23.8448 67.4164 23.7404 67.1356L19.1449 55.7434H21.6105Z" fill="#333333"/>
<path d="M34.0838 55.7434L35.7276 62.0259C36.0849 63.4072 36.4184 64.6843 36.6508 65.9617H36.728C37.0081 64.7078 37.4189 63.3805 37.8302 62.0259L39.8587 55.7434H41.7587L43.6826 61.9252C44.1446 63.4072 44.5046 64.7078 44.7877 65.9617H44.862C45.0675 64.7078 45.404 63.4072 45.815 61.9506L47.5843 55.7434H49.8178L45.815 68.1047H43.7599L41.8596 62.2053C41.4252 60.8275 41.0646 59.6002 40.758 58.1439H40.7046C40.3977 59.6256 40.0138 60.9028 39.5756 62.2306L37.5745 68.1047H35.5223L31.7725 55.7434H34.0838Z" fill="#333333"/>
<path d="M60.3909 65.144C60.3909 66.2151 60.4416 67.2629 60.5967 68.1047H58.5448L58.3629 66.5472H58.2886C57.5948 67.5179 56.2603 68.3861 54.4883 68.3861C51.9717 68.3861 50.6912 66.6241 50.6912 64.8357C50.6912 61.8486 53.3596 60.2137 58.1579 60.2391V59.9844C58.1579 58.962 57.8778 57.1244 55.3342 57.1244C54.1784 57.1244 52.9756 57.4814 52.0999 58.0428L51.5872 56.5611C52.6151 55.8972 54.1043 55.4634 55.6677 55.4634C59.4682 55.4634 60.3911 58.0428 60.3911 60.5205V65.144H60.3909ZM58.2078 61.7979C55.7447 61.7461 52.9483 62.1802 52.9483 64.5808C52.9483 66.0357 53.9222 66.7263 55.078 66.7263C56.6952 66.7263 57.7225 65.7041 58.0828 64.6579C58.1576 64.427 58.2081 64.1718 58.2081 63.9422V61.7979H58.2078Z" fill="#333333"/>
<path d="M63.0087 49.9717H65.2661V68.1047H63.0087V49.9717Z" fill="#333333"/>
<path d="M70.5554 52.27C70.5796 53.0378 70.0167 53.651 69.1171 53.651C68.3222 53.651 67.7563 53.0378 67.7563 52.27C67.7563 51.4785 68.3455 50.8652 69.1681 50.8652C70.0167 50.8655 70.5554 51.4787 70.5554 52.27ZM68.0391 68.1047V55.7435H70.2965V68.1047H68.0391Z" fill="#333333"/>
<path d="M76.7656 52.7825V55.7434H80V57.4559H76.7656V64.1215C76.7656 65.6534 77.2004 66.5218 78.4601 66.5218C79.0763 66.5218 79.434 66.47 79.7674 66.3694L79.8718 68.0542C79.434 68.2336 78.7431 68.386 77.8704 68.386C76.816 68.386 75.9701 68.0304 75.4314 67.4167C74.7907 66.753 74.5583 65.6536 74.5583 64.1984V57.4559H72.6312V55.7434H74.5583V53.4715L76.7656 52.7825Z" fill="#333333"/>
<rect width="57.0332" height="44.6289" fill="black" fill-opacity="0" transform="translate(11.4832)"/>
<path d="M16.1482 5.02612C13.0686 7.72006 12.3807 11.3238 12.3807 11.3238C10.4326 17.0198 12.2167 24.1026 12.5234 25.155C12.8808 26.4914 13.7535 27.6412 14.7244 30.9281C15.3171 32.9108 15.7281 35.4238 16.1482 37.8037V5.02612Z" fill="#E8BF43"/>
<path d="M21.4199 2.45093C19.1563 2.92506 17.4409 3.89707 16.1486 5.02607V37.8034C16.4254 39.371 16.7053 40.8794 17.0481 42.136C17.7806 44.8358 19.6717 44.6134 21.4202 44.5662V2.45093H21.4199Z" fill="#E98025"/>
<path d="M24.3476 31.3634C24.3476 31.3634 25.4433 31.3247 26.6911 31.3188V2.2611C24.6658 2.04165 22.9238 2.13669 21.4198 2.45091V44.5662C21.7206 44.5574 22.0216 44.5544 22.3073 44.575C24.258 44.6876 24.1301 42.628 23.5226 41.4101C22.915 40.1981 22.7543 33.8024 22.7543 32.5845C22.754 31.3634 24.3476 31.3634 24.3476 31.3634Z" fill="#E12228"/>
<path d="M31.9566 3.36967C30.173 2.99325 29.0325 2.63471 29.0325 2.63471C28.2134 2.46279 27.433 2.34132 26.6912 2.26123V31.319C27.4805 31.3131 28.3293 31.3249 28.9963 31.3636C30.0958 31.4375 31.0546 31.4228 31.9566 31.3545V3.36967Z" fill="#DA6197"/>
<path d="M31.9567 31.3547C33.7354 31.2242 35.2896 30.8953 37.2344 30.6732V4.13715C35.2333 3.98605 33.3896 3.67183 31.9567 3.36963V31.3547Z" fill="#9E5394"/>
<path d="M37.2344 4.1372V30.6729C38.2083 30.5632 39.2838 30.4772 40.5346 30.4596C41.3416 30.4479 41.985 30.5456 42.5001 30.7146V4.06592C40.7369 4.27949 38.9289 4.26748 37.2344 4.1372Z" fill="#ABB0D1"/>
<path d="M47.7689 2.78003C46.6579 3.20077 45.3328 3.59507 43.6528 3.89728C43.2713 3.96535 42.8877 4.02168 42.5002 4.06626V30.7149C44.7968 31.4675 44.5138 33.6163 44.5138 33.6163C44.5138 33.6163 44.7968 39.1999 44.7968 41.2504C44.7968 43.3189 45.9582 44.62 47.3015 44.62C47.4472 44.62 47.605 44.62 47.7689 44.62V2.78003Z" fill="#0779B5"/>
<path d="M47.7688 44.6196C49.121 44.6196 50.914 44.6196 50.914 44.6196C52.0786 44.6935 52.7042 44.3142 53.0436 43.8489V0.408936C51.4175 0.942331 50.0444 1.92049 47.7691 2.77985V44.6196H47.7688Z" fill="#7BB2DC"/>
<path d="M58.312 0.293394C57.3614 0.0859625 56.4385 0 55.6224 0C54.6246 0 53.8058 0.154305 53.0433 0.40899V43.8492C53.5021 43.2149 53.4184 42.4207 53.4184 42.4207C53.4184 42.4207 53.0433 33.5566 53.4184 29.3007C53.7758 25.0479 56.1048 25.3 57.314 25.3C57.7373 25.3 58.0587 25.4452 58.3123 25.7295V0.293394H58.312Z" fill="#009C97"/>
<path d="M58.3121 25.7299C58.7942 26.2782 59.0357 27.345 59.268 28.9422C59.5393 30.7029 61.3258 35.1628 63.5808 37.5633V3.12357C62.0883 1.54688 60.1496 0.690456 58.3121 0.293213V25.7299Z" fill="#81A347"/>
<path d="M65.8708 32.3385C62.4517 27.484 65.6178 20.4308 66.1179 11.3239C66.3237 7.47426 65.2245 4.86041 63.5807 3.12354V37.5633C64.4532 38.4937 65.4002 39.116 66.3532 39.1488C69.787 39.2524 68.1936 35.859 67.8336 35.4975C67.4583 35.1304 65.8708 32.3385 65.8708 32.3385Z" fill="#C1C830"/>
</svg>
